<?xml version="1.0" standalone="no"?>
<!DOCTYPE svg PUBLIC "-//W3C//DTD SVG 20010904//EN"
 "http://www.w3.org/TR/2001/REC-SVG-20010904/DTD/svg10.dtd">
<svg version="1.0" xmlns="http://www.w3.org/2000/svg"
 width="190.000000pt" height="190.000000pt" viewBox="0 0 190.000000 190.000000"
 preserveAspectRatio="xMidYMid meet">
<metadata>
Created by potrace 1.14, written by Peter Selinger 2001-2017
</metadata>
<g transform="translate(0.000000,190.000000) scale(0.100000,-0.100000)"
fill="#000000" stroke="none">
<path d="M339 1634 c0 -11 -2 -28 -5 -39 -2 -11 -5 -37 -6 -57 -2 -21 -5 -38
-8 -38 -3 0 -5 -17 -6 -38 -1 -20 -4 -57 -8 -82 -11 -75 -17 -123 -21 -158 -2
-27 9 -50 61 -127 35 -52 64 -99 64 -105 0 -5 4 -10 9 -10 5 0 12 -9 16 -19 6
-19 -6 -50 -66 -175 -29 -60 -30 -76 -3 -76 11 0 12 -4 5 -19 -13 -23 -10 -26
74 -67 146 -71 227 -131 398 -296 46 -45 86 -75 96 -73 9 2 48 34 86 72 74 74
232 205 268 225 12 6 24 14 27 18 3 4 46 27 96 52 81 39 90 46 83 65 -6 16 -3
22 13 26 11 3 18 9 16 14 -3 4 -19 40 -37 78 -18 39 -39 84 -47 100 -8 17 -12
39 -8 49 4 10 40 68 81 129 41 62 71 118 68 126 -2 9 -7 41 -10 71 -7 69 -15
130 -20 150 -2 8 -7 44 -10 80 -3 36 -9 83 -13 104 l-7 40 -27 -27 c-15 -15
-29 -27 -32 -27 -3 0 -25 -20 -50 -45 -25 -25 -46 -42 -46 -39 0 3 -10 -5 -22
-18 -13 -13 -52 -48 -88 -78 -36 -30 -78 -67 -94 -81 -21 -19 -36 -26 -55 -22
-41 7 -331 11 -331 4 0 -19 -48 -6 -79 21 -20 17 -58 49 -84 72 -26 22 -70 62
-97 88 -28 25 -50 44 -50 41 0 -2 -6 2 -14 9 -18 18 -78 70 -99 87 -15 12 -17
11 -18 -5z m188 -221 c11 -10 46 -40 78 -68 32 -27 63 -55 69 -61 26 -25 62
-41 81 -37 38 10 280 11 335 2 35 -5 56 -5 58 1 2 6 8 10 12 10 9 0 86 66 127
109 13 13 23 20 23 15 0 -5 5 -1 11 9 5 9 19 17 29 17 12 0 20 -7 20 -17 0
-10 10 -35 23 -56 l23 -37 34 31 c33 30 34 31 42 10 4 -11 10 -50 13 -86 6
-67 -4 -93 -52 -143 -7 -7 -13 -17 -13 -21 0 -5 -9 -20 -21 -34 -14 -19 -24
-24 -32 -17 -7 6 -34 30 -61 55 -52 47 -73 57 -56 28 15 -28 160 -346 160
-352 0 -3 -19 -14 -43 -23 -23 -10 -54 -29 -69 -43 -15 -14 -31 -25 -35 -25
-5 0 -8 -6 -8 -12 0 -8 10 -12 23 -10 30 3 17 -11 -53 -55 -28 -18 -60 -41
-73 -53 -12 -11 -22 -19 -22 -16 0 3 -15 -8 -32 -25 -18 -16 -36 -29 -41 -29
-4 0 -5 -4 -2 -10 3 -5 1 -10 -5 -10 -6 0 -24 -13 -40 -30 -28 -29 -40 -32
-115 -32 -42 0 -44 1 -74 29 -16 16 -42 39 -57 53 -30 27 -188 146 -220 167
-17 10 -15 11 11 7 17 -3 37 -7 45 -9 8 -3 2 6 -15 20 -16 13 -37 31 -47 39
-9 8 -19 12 -22 9 -3 -4 -6 -2 -6 4 0 6 -20 19 -45 30 -25 10 -45 21 -45 25 0
5 39 92 116 254 13 28 24 56 24 62 0 6 5 12 11 14 6 2 10 11 8 21 -3 13 -17 6
-64 -36 -54 -48 -85 -62 -85 -36 0 5 -21 39 -46 76 -44 65 -45 68 -40 126 4
33 9 70 12 83 l6 23 32 -24 c18 -14 37 -25 42 -25 14 0 57 97 49 109 -9 16 -1
13 22 -6z"/>
<path d="M610 884 c0 -3 8 -18 19 -32 10 -15 30 -50 44 -79 25 -48 68 -83 103
-83 24 0 6 92 -22 115 -30 24 -144 86 -144 79z"/>
<path d="M1205 859 c-27 -16 -59 -32 -70 -38 -32 -14 -42 -32 -48 -83 -7 -53
-5 -54 44 -34 29 12 79 73 70 85 -1 2 1 7 6 10 10 7 55 83 51 86 -2 1 -25 -11
-53 -26z"/>
<path d="M1245 650 c3 -5 10 -10 16 -10 5 0 9 5 9 10 0 6 -7 10 -16 10 -8 0
-12 -4 -9 -10z"/>
</g>
</svg>
